<?xml version="1.0" encoding="utf-8"?>
<!-- Generator: Adobe Illustrator 22.0.0, SVG Export Plug-In . SVG Version: 6.00 Build 0)  -->
<svg version="1.1" xmlns="http://www.w3.org/2000/svg" xmlns:xlink="http://www.w3.org/1999/xlink" x="0px" y="0px"
	 viewBox="0 0 52.9 53.3" style="enable-background:new 0 0 52.9 53.3;" xml:space="preserve">
<style type="text/css">
	.st0{display:none;}
	.st1{display:inline;}
	.st2{fill:#FFFFFF;}
	.st3{display:inline;fill:#FFFFFF;}
</style>
<g id="Layer_1" class="st0">
	<g class="st1">
		<path class="st2" d="M12.8,7.8H9.1V7c0-0.9-0.2-1.6-0.6-2.2c-0.4-0.6-1.1-0.9-2-0.9c-0.5,0-0.9,0.1-1.2,0.3
			C4.9,4.3,4.6,4.5,4.4,4.8C4.2,5.2,4.1,5.5,4,5.9C3.9,6.3,3.9,6.7,3.9,7.2c0,0.5,0,0.9,0.1,1.3s0.1,0.6,0.3,0.9s0.4,0.5,0.6,0.7
			s0.7,0.4,1.2,0.6l2.9,1.1c0.8,0.3,1.5,0.7,2,1.1c0.5,0.4,0.9,0.9,1.2,1.5c0.3,0.6,0.5,1.3,0.6,2c0.1,0.7,0.1,1.6,0.1,2.6
			c0,1.1-0.1,2.1-0.3,3.1c-0.2,0.9-0.6,1.7-1.1,2.4c-0.5,0.7-1.2,1.2-2,1.6c-0.8,0.4-1.9,0.6-3.1,0.6c-0.9,0-1.8-0.2-2.5-0.5
			c-0.8-0.3-1.5-0.8-2-1.3c-0.6-0.6-1-1.2-1.3-2C0.1,22.1,0,21.3,0,20.5v-1.4h3.7v1.2c0,0.7,0.2,1.3,0.6,1.9c0.4,0.6,1.1,0.8,2,0.8
			c0.6,0,1.1-0.1,1.5-0.3s0.6-0.4,0.8-0.8C8.9,21.5,9,21.1,9,20.6c0-0.5,0.1-1,0.1-1.6c0-0.7,0-1.2-0.1-1.7c0-0.4-0.1-0.8-0.3-1.1
			C8.5,16,8.3,15.8,8,15.6c-0.3-0.2-0.7-0.4-1.1-0.6l-2.7-1.1c-1.6-0.7-2.7-1.5-3.3-2.6c-0.6-1.1-0.8-2.5-0.8-4.1
			c0-1,0.1-1.9,0.4-2.8c0.3-0.9,0.7-1.6,1.2-2.3c0.5-0.6,1.2-1.1,2-1.5c0.8-0.4,1.7-0.6,2.8-0.6c0.9,0,1.8,0.2,2.6,0.5
			c0.8,0.3,1.4,0.8,2,1.4c1.1,1.2,1.7,2.5,1.7,4V7.8z"/>
		<path class="st2" d="M22.5,26.4V3.8h-4.3V0.3h12.4v3.5h-4.3v22.6H22.5z"/>
		<path class="st2" d="M36.6,26.4V0.3h6c4.4,0,6.6,2.6,6.6,7.7c0,1.5-0.2,2.9-0.7,3.9c-0.5,1.1-1.3,1.9-2.5,2.6l4,11.9h-4l-3.5-11.2
			h-2.2v11.2H36.6z M40.4,3.8V12h2.1c0.7,0,1.2-0.1,1.6-0.3c0.4-0.2,0.7-0.4,0.9-0.8c0.2-0.3,0.3-0.8,0.4-1.3
			c0.1-0.5,0.1-1.1,0.1-1.7c0-0.7,0-1.2-0.1-1.7c-0.1-0.5-0.2-0.9-0.4-1.3c-0.5-0.7-1.3-1-2.6-1H40.4z"/>
		<path class="st2" d="M55,26.4l5.8-26.2H64l5.8,26.2h-3.7L65,20.8h-5.1l-1.1,5.6H55z M64.3,17.3l-1.8-9.5h-0.1l-1.8,9.5H64.3z"/>
		<path class="st2" d="M76.2,26.4V0.3h3.7v26.2H76.2z"/>
		<path class="st2" d="M87.8,6.4c0-1.1,0.2-2,0.6-2.8c0.4-0.8,0.9-1.5,1.5-2c0.6-0.5,1.3-0.9,2-1.2c0.7-0.3,1.5-0.4,2.3-0.4
			s1.5,0.1,2.3,0.4c0.7,0.3,1.4,0.7,2,1.2c0.6,0.5,1.1,1.2,1.4,2c0.4,0.8,0.6,1.7,0.6,2.8v1.3h-3.7V6.4c0-0.9-0.3-1.6-0.8-2
			C95.3,4,94.7,3.8,94,3.8c-0.7,0-1.3,0.2-1.8,0.6c-0.5,0.4-0.8,1.1-0.8,2v13.8c0,0.9,0.3,1.6,0.8,2c0.5,0.4,1.1,0.6,1.8,0.6
			c0.7,0,1.3-0.2,1.8-0.6c0.5-0.4,0.8-1.1,0.8-2v-4.9h-3V12h6.7v8.2c0,1.1-0.2,2-0.6,2.8c-0.4,0.8-0.8,1.4-1.4,1.9
			c-0.6,0.5-1.3,0.9-2,1.2c-0.7,0.3-1.5,0.4-2.3,0.4s-1.5-0.1-2.3-0.4c-0.7-0.3-1.4-0.7-2-1.2c-0.6-0.5-1.1-1.2-1.5-1.9
			c-0.4-0.8-0.6-1.7-0.6-2.8V6.4z"/>
		<path class="st2" d="M108,26.4V0.3h3.7v11.2h4.6V0.3h3.7v26.2h-3.7V14.8h-4.6v11.6H108z"/>
		<path class="st2" d="M130.6,26.4V3.8h-4.3V0.3h12.4v3.5h-4.3v22.6H130.6z"/>
		<path class="st2" d="M156,26.4V0.3h3.7v22.4h7.4v3.7H156z"/>
		<path class="st2" d="M174.1,26.4V0.3h3.7v26.2H174.1z"/>
		<path class="st2" d="M185.7,26.4V0.3h3.6L195,16h0.1V0.3h3.7v26.2h-3.5l-5.7-15.7h-0.1v15.7H185.7z"/>
		<path class="st2" d="M206.6,26.4V0.3h11.2v3.5h-7.4v7.7h6.5V15h-6.5v7.7h7.4v3.7H206.6z"/>
	</g>
	<g class="st1">
		<path class="st2" d="M1.2,45.8V53h-1.2V37.6h5.5c3,0,4.7,1.6,4.7,4.1c0,2-1.2,3.2-2.9,3.6c1.6,0.4,2.6,1.4,2.6,4v0.6
			c0,1.1-0.1,2.5,0.2,3.1H8.9c-0.3-0.7-0.2-1.9-0.2-3.2v-0.4c0-2.5-0.7-3.6-3.7-3.6H1.2z M1.2,44.7h3.7c2.7,0,4-1,4-3
			c0-1.9-1.2-3-3.6-3H1.2V44.7z"/>
		<path class="st2" d="M23.7,45.4h-7.9v6.5h8.6L24.2,53h-9.6V37.6h9.5v1.1h-8.3v5.6h7.9V45.4z"/>
		<path class="st2" d="M32,38.7h-5.2v-1.1h11.6v1.1h-5.2V53H32V38.7z"/>
		<path class="st2" d="M41.3,47.7l-2,5.3h-1.2l5.7-15.4h1.4L51.1,53h-1.3l-2-5.3H41.3z M47.4,46.6c-1.7-4.6-2.6-6.8-2.9-7.8h0
			c-0.4,1.2-1.4,3.9-2.8,7.8H47.4z"/>
		<path class="st2" d="M55.8,37.6V53h-1.2V37.6H55.8z"/>
		<path class="st2" d="M61,37.6h1.2v14.3h8.3L70.3,53H61V37.6z"/>
		<path class="st2" d="M91.8,48.9c-0.7,2.4-2.5,4.3-5.8,4.3c-4.4,0-6.8-3.5-6.8-7.9c0-4.2,2.3-8,6.8-8c3.3,0,5.3,1.9,5.8,4.4h-1.2
			c-0.7-2-2-3.3-4.7-3.3c-3.8,0-5.4,3.5-5.4,6.8c0,3.3,1.6,6.8,5.5,6.8c2.5,0,3.8-1.3,4.6-3.2H91.8z"/>
		<path class="st2" d="M108.8,45.2c0,4.2-2.2,8-7,8c-4.3,0-6.9-3.5-6.9-7.9c0-4.4,2.4-7.9,7-7.9C106.2,37.4,108.8,40.7,108.8,45.2z
			 M96.2,45.2c0,3.5,2,6.9,5.7,6.9c4,0,5.7-3.3,5.7-6.9c0-3.6-1.9-6.7-5.6-6.7C97.9,38.5,96.2,41.8,96.2,45.2z"/>
		<path class="st2" d="M112.9,53V37.6h1.8c2.4,3.7,8,12.3,9,14h0c-0.1-2.2-0.1-4.5-0.1-7v-7h1.2V53h-1.6c-2.3-3.6-8-12.5-9.1-14.2h0
			c0.1,2,0.1,4.3,0.1,7.1V53H112.9z"/>
		<path class="st2" d="M130,48.9c0.5,2.1,1.8,3.3,4.4,3.3c2.8,0,3.9-1.4,3.9-3.1c0-1.7-0.8-2.8-4.2-3.7c-3.3-0.8-4.7-1.9-4.7-4.1
			c0-2,1.5-3.9,4.8-3.9c3.4,0,4.8,2.1,5,3.9H138c-0.4-1.7-1.4-2.8-3.9-2.8c-2.2,0-3.4,1-3.4,2.8c0,1.7,1,2.4,3.9,3.1
			c4.3,1.1,5,2.8,5,4.7c0,2.3-1.7,4.2-5.2,4.2c-3.9,0-5.3-2.2-5.6-4.3H130z"/>
		<path class="st2" d="M144.3,37.6v9.3c0,4.1,2.3,5.2,4.5,5.2c2.6,0,4.5-1.1,4.5-5.2v-9.3h1.2v9.3c0,4.8-2.6,6.3-5.8,6.3
			c-3,0-5.7-1.7-5.7-6.1v-9.5H144.3z"/>
		<path class="st2" d="M159.5,37.6h1.2v14.3h8.3l-0.2,1.1h-9.3V37.6z"/>
		<path class="st2" d="M173,38.7h-5.2v-1.1h11.6v1.1h-5.2V53H173V38.7z"/>
		<path class="st2" d="M183.6,37.6V53h-1.2V37.6H183.6z"/>
		<path class="st2" d="M188.8,53V37.6h1.8c2.4,3.7,8,12.3,9,14h0c-0.1-2.2-0.1-4.5-0.1-7v-7h1.2V53h-1.6c-2.3-3.6-8-12.5-9.1-14.2h0
			c0.1,2,0.1,4.3,0.1,7.1V53H188.8z"/>
		<path class="st2" d="M217.7,53h-1c-0.1-0.2-0.1-1-0.2-2.5c-0.6,1.1-1.8,2.6-5,2.6c-4.4,0-6.7-3.4-6.7-7.8c0-4.6,2.4-8.1,6.9-8.1
			c3.3,0,5.5,1.7,6,4.6h-1.2c-0.7-2.2-2.2-3.5-4.9-3.5c-3.9,0-5.6,3-5.6,6.9c0,3.5,1.7,6.7,5.5,6.7c3.9,0,4.9-2.5,4.9-5.9V46h-5
			v-1.1h6.1V53z"/>
	</g>
	<rect x="0" y="29.7" class="st3" width="217.7" height="3.9"/>
</g>
<g id="Layer_2">
	<path class="st2" d="M26.4,0.3C11.9,0.3,0.1,12.1,0.1,26.6S11.9,53,26.4,53s26.4-11.8,26.4-26.4S41,0.3,26.4,0.3z M38,41.7H15.2
		l6.8-33.8h8.3l-5.4,26.8h14.6L38,41.7z"/>
</g>
</svg>
